<?xml version="1.0" standalone="no"?>
<!DOCTYPE svg PUBLIC "-//W3C//DTD SVG 20010904//EN"
 "http://www.w3.org/TR/2001/REC-SVG-20010904/DTD/svg10.dtd">
<svg version="1.0" xmlns="http://www.w3.org/2000/svg"
 width="360.000000pt" height="360.000000pt" viewBox="0 0 360.000000 360.000000"
 preserveAspectRatio="xMidYMid meet">
<metadata>
Created by potrace 1.14, written by Peter Selinger 2001-2017
</metadata>
<g transform="translate(0.000000,360.000000) scale(0.100000,-0.100000)"
fill="#000000" stroke="none">
<path d="M1615 3334 c-205 -31 -355 -77 -515 -160 -152 -77 -267 -161 -390
-284 -214 -214 -357 -476 -422 -773 -19 -88 -22 -132 -22 -317 0 -185 3 -229
22 -317 44 -202 135 -410 255 -580 79 -113 247 -281 360 -360 170 -120 378
-211 580 -255 88 -19 132 -22 317 -22 185 0 229 3 317 22 202 44 410 135 580
255 113 79 281 247 360 360 120 170 211 378 255 580 19 88 22 132 22 317 0
185 -3 229 -22 317 -44 202 -135 410 -255 580 -79 113 -247 281 -360 360 -106
75 -271 160 -390 202 -159 56 -262 72 -472 76 -104 2 -203 1 -220 -1z m170
-804 c367 -28 696 -107 950 -229 111 -54 158 -88 180 -132 33 -63 9 -153 -52
-190 -54 -34 -98 -28 -203 25 -446 229 -1127 299 -1658 171 -125 -30 -157 -31
-199 -5 -48 29 -67 65 -67 126 0 93 43 132 189 168 257 64 564 87 860 66z m93
-546 c231 -30 486 -110 687 -217 116 -62 145 -95 145 -164 0 -69 -50 -123
-112 -123 -13 0 -85 32 -162 70 -425 214 -919 263 -1408 139 -69 -17 -82 -18
-111 -5 -19 7 -44 26 -56 42 -19 24 -22 38 -19 83 7 81 36 102 180 135 62 14
142 31 178 37 177 30 458 32 678 3z m-58 -498 c207 -28 350 -70 526 -156 139
-68 174 -100 174 -161 0 -29 -7 -47 -24 -64 -45 -45 -64 -43 -208 29 -146 72
-242 105 -393 138 -85 19 -133 22 -325 22 -228 1 -286 -5 -488 -46 -103 -21
-103 -21 -130 -1 -60 44 -66 125 -12 165 28 20 179 53 340 73 141 17 411 18
540 1z"/>
</g>
</svg>
